<svg width="24" height="24" viewBox="0 0 24 24" fill="none" xmlns="http://www.w3.org/2000/svg">
<path d="M21.4286 0H2.57143C1.15125 0 0 1.15125 0 2.57143V21.4286C0 22.8488 1.15125 24 2.57143 24H21.4286C22.8488 24 24 22.8488 24 21.4286V2.57143C24 1.15125 22.8488 0 21.4286 0ZM5.03571 20.5714C4.65895 20.5714 4.33623 20.3104 4.25271 19.9486L3.44925 16.4664C3.40688 16.2828 3.43038 16.0902 3.51564 15.9221C3.6009 15.7541 3.7425 15.6214 3.9157 15.5471L7.66559 13.94C7.82578 13.8714 8.00394 13.8567 8.17321 13.8981C8.34249 13.9396 8.4937 14.0349 8.60405 14.1698L10.2646 16.1994C12.8866 14.9692 14.9948 12.832 16.1993 10.2647L14.1697 8.60416C14.0348 8.4938 13.9395 8.34259 13.898 8.17331C13.8566 8.00404 13.8713 7.82588 13.9399 7.6657L15.5471 3.9158C15.6213 3.74261 15.754 3.60101 15.9221 3.51575C16.0901 3.43049 16.2828 3.40699 16.4664 3.44936L19.9485 4.25282C20.1256 4.29364 20.2836 4.39328 20.3967 4.53547C20.5098 4.67766 20.5714 4.85401 20.5714 5.03571C20.5714 13.6228 13.6101 20.5714 5.03571 20.5714Z" fill="#333333"/>
</svg>
